# Exported by Simplify3D(R) Version 5.1.2
o crossmember_01.obj
v 5.998704e+01 1.054725e+02 0.000000e+00
v 1.600130e+02 1.054725e+02 0.000000e+00
v 6.917852e+01 1.054725e+02 7.214457e+00
v 7.823360e+01 1.054725e+02 7.214457e+00
v 1.417504e+02 1.054725e+02 7.214457e+00
v 1.508055e+02 1.054725e+02 7.214457e+00
v 5.998704e+01 1.054725e+02 1.440513e+01
v 6.917852e+01 1.054725e+02 1.440513e+01
v 7.823360e+01 1.054725e+02 1.440513e+01
v 1.417504e+02 1.054725e+02 1.440513e+01
v 1.508055e+02 1.054725e+02 1.440513e+01
v 1.600130e+02 1.054725e+02 1.440513e+01
v 5.998704e+01 1.145275e+02 0.000000e+00
v 1.600130e+02 1.145275e+02 0.000000e+00
v 6.917852e+01 1.145275e+02 7.214457e+00
v 7.823360e+01 1.145275e+02 7.214457e+00
v 1.417504e+02 1.145275e+02 7.214457e+00
v 1.508055e+02 1.145275e+02 7.214457e+00
v 5.998704e+01 1.145275e+02 1.440513e+01
v 6.917852e+01 1.145275e+02 1.440513e+01
v 7.823360e+01 1.145275e+02 1.440513e+01
v 1.417504e+02 1.145275e+02 1.440513e+01
v 1.508055e+02 1.145275e+02 1.440513e+01
v 1.600130e+02 1.145275e+02 1.440513e+01
vn 0.000000e+00 -1.000000e+00 0.000000e+00
vn 0.000000e+00 -1.000000e+00 0.000000e+00
vn 0.000000e+00 -1.000000e+00 0.000000e+00
vn 0.000000e+00 -1.000000e+00 0.000000e+00
vn 0.000000e+00 -1.000000e+00 0.000000e+00
vn 0.000000e+00 -1.000000e+00 0.000000e+00
vn 0.000000e+00 -1.000000e+00 0.000000e+00
vn 0.000000e+00 -1.000000e+00 0.000000e+00
vn 0.000000e+00 -1.000000e+00 0.000000e+00
vn 0.000000e+00 -1.000000e+00 0.000000e+00
vn -1.000000e+00 0.000000e+00 0.000000e+00
vn -1.000000e+00 0.000000e+00 0.000000e+00
vn 0.000000e+00 1.000000e+00 0.000000e+00
vn 0.000000e+00 1.000000e+00 0.000000e+00
vn 0.000000e+00 1.000000e+00 0.000000e+00
vn 0.000000e+00 1.000000e+00 0.000000e+00
vn 0.000000e+00 1.000000e+00 0.000000e+00
vn 0.000000e+00 1.000000e+00 0.000000e+00
vn 0.000000e+00 1.000000e+00 0.000000e+00
vn 0.000000e+00 1.000000e+00 0.000000e+00
vn 0.000000e+00 1.000000e+00 0.000000e+00
vn 0.000000e+00 1.000000e+00 0.000000e+00
vn 1.000000e+00 0.000000e+00 0.000000e+00
vn 1.000000e+00 0.000000e+00 0.000000e+00
vn 0.000000e+00 0.000000e+00 -1.000000e+00
vn 0.000000e+00 0.000000e+00 -1.000000e+00
vn 0.000000e+00 0.000000e+00 1.000000e+00
vn 0.000000e+00 0.000000e+00 1.000000e+00
vn 0.000000e+00 0.000000e+00 1.000000e+00
vn 0.000000e+00 0.000000e+00 1.000000e+00
vn 0.000000e+00 0.000000e+00 1.000000e+00
vn 0.000000e+00 0.000000e+00 1.000000e+00
vn 1.000000e+00 0.000000e+00 0.000000e+00
vn 1.000000e+00 0.000000e+00 0.000000e+00
vn -1.000000e+00 0.000000e+00 0.000000e+00
vn -1.000000e+00 0.000000e+00 0.000000e+00
vn 0.000000e+00 0.000000e+00 1.000000e+00
vn 0.000000e+00 0.000000e+00 1.000000e+00
vn 1.000000e+00 0.000000e+00 0.000000e+00
vn 1.000000e+00 0.000000e+00 0.000000e+00
vn -1.000000e+00 0.000000e+00 0.000000e+00
vn -1.000000e+00 0.000000e+00 0.000000e+00
vn 0.000000e+00 0.000000e+00 1.000000e+00
vn 0.000000e+00 0.000000e+00 1.000000e+00
f 8//1 7//1 1//1
f 2//2 12//2 11//2
f 2//3 11//3 6//3
f 3//4 8//4 1//4
f 10//5 9//5 4//5
f 4//6 3//6 1//6
f 1//7 2//7 6//7
f 5//8 10//8 4//8
f 1//9 6//9 5//9
f 1//10 5//10 4//10
f 1//11 7//11 19//11
f 1//12 19//12 13//12
f 23//13 24//13 14//13
f 13//14 19//14 20//14
f 13//15 20//15 15//15
f 18//16 23//16 14//16
f 21//17 22//17 17//17
f 17//18 18//18 14//18
f 14//19 13//19 15//19
f 16//20 21//20 17//20
f 14//21 15//21 16//21
f 14//22 16//22 17//22
f 14//23 24//23 12//23
f 14//24 12//24 2//24
f 1//25 13//25 14//25
f 1//26 14//26 2//26
f 11//27 12//27 24//27
f 11//28 24//28 23//28
f 22//29 21//29 9//29
f 22//30 9//30 10//30
f 20//31 19//31 7//31
f 20//32 7//32 8//32
f 8//33 3//33 15//33
f 8//34 15//34 20//34
f 21//35 16//35 4//35
f 21//36 4//36 9//36
f 3//37 4//37 16//37
f 3//38 16//38 15//38
f 10//39 5//39 17//39
f 10//40 17//40 22//40
f 23//41 18//41 6//41
f 23//42 6//42 11//42
f 5//43 6//43 18//43
f 5//44 18//44 17//44
