# Exported by Simplify3D(R) Version 5.1.2
o 3_slot_block_02c.obj
v 2.370108e+01 1.145275e+02 0.000000e+00
v 2.370108e+01 1.054725e+02 9.536743e-07
v 3.289256e+01 1.145275e+02 0.000000e+00
v 3.289256e+01 1.145275e+02 7.190672e+00
v 3.289256e+01 1.054725e+02 7.190673e+00
v 3.289256e+01 1.054725e+02 9.536743e-07
v 4.194765e+01 1.145275e+02 7.190672e+00
v 4.194765e+01 1.145275e+02 0.000000e+00
v 4.194765e+01 1.054725e+02 9.536743e-07
v 4.194765e+01 1.054725e+02 7.190673e+00
v 1.054645e+02 1.145275e+02 1.430511e-06
v 1.054645e+02 1.145275e+02 7.190672e+00
v 1.054645e+02 1.145275e+02 7.190672e+00
v 1.054645e+02 1.145275e+02 0.000000e+00
v 1.054645e+02 1.054725e+02 7.190672e+00
v 1.054645e+02 1.054725e+02 9.536743e-07
v 1.054645e+02 1.054725e+02 9.536743e-07
v 1.054645e+02 1.054725e+02 7.190673e+00
v 1.145196e+02 1.145275e+02 0.000000e+00
v 1.145196e+02 1.145275e+02 7.190671e+00
v 1.145195e+02 1.145275e+02 7.190673e+00
v 1.145196e+02 1.054725e+02 9.536743e-07
v 1.145195e+02 1.054725e+02 7.190673e+00
v 1.237270e+02 1.145275e+02 0.000000e+00
v 1.780364e+02 1.145275e+02 7.190672e+00
v 1.780364e+02 1.145275e+02 0.000000e+00
v 1.780364e+02 1.054725e+02 7.190673e+00
v 1.780364e+02 1.054725e+02 9.536743e-07
v 1.870915e+02 1.145275e+02 0.000000e+00
v 1.870915e+02 1.145275e+02 7.190672e+00
v 1.870915e+02 1.054725e+02 9.536743e-07
v 1.870915e+02 1.054725e+02 7.190673e+00
v 1.962989e+02 1.145275e+02 0.000000e+00
v 1.962989e+02 1.054725e+02 9.536743e-07
v 2.370108e+01 1.145275e+02 1.440513e+01
v 2.370108e+01 1.054725e+02 1.440513e+01
v 1.962989e+02 1.145275e+02 1.440513e+01
v 1.962989e+02 1.054725e+02 1.440513e+01
vn 0.000000e+00 1.000000e+00 -1.061013e-06
vn -9.946994e-08 1.000000e+00 -1.061013e-06
vn 0.000000e+00 1.000000e+00 0.000000e+00
vn 0.000000e+00 1.000000e+00 0.000000e+00
vn 0.000000e+00 1.000000e+00 0.000000e+00
vn 0.000000e+00 1.000000e+00 0.000000e+00
vn -4.420330e-08 1.000000e+00 5.641451e-08
vn 0.000000e+00 1.000000e+00 0.000000e+00
vn 0.000000e+00 1.000000e+00 1.057515e-06
vn 0.000000e+00 1.000000e+00 0.000000e+00
vn 0.000000e+00 1.000000e+00 0.000000e+00
vn 0.000000e+00 1.000000e+00 0.000000e+00
vn -8.286102e-07 1.000000e+00 6.258287e-06
vn 1.593059e-14 1.000000e+00 -1.061013e-06
vn 0.000000e+00 1.000000e+00 0.000000e+00
vn 0.000000e+00 1.000000e+00 0.000000e+00
vn 0.000000e+00 1.000000e+00 0.000000e+00
vn 1.587807e-14 1.000000e+00 1.057515e-06
vn -1.113766e-13 1.000000e+00 1.057513e-06
vn -1.869300e-07 1.000000e+00 -1.061013e-06
vn -1.000000e+00 0.000000e+00 0.000000e+00
vn -1.000000e+00 0.000000e+00 0.000000e+00
vn 0.000000e+00 -1.000000e+00 0.000000e+00
vn 0.000000e+00 -1.000000e+00 0.000000e+00
vn 2.252177e-08 -1.053193e-07 -1.000000e+00
vn 0.000000e+00 5.265965e-08 -1.000000e+00
vn 0.000000e+00 -1.000000e+00 0.000000e+00
vn 0.000000e+00 -1.000000e+00 0.000000e+00
vn 0.000000e+00 -1.000000e+00 0.000000e+00
vn 0.000000e+00 -1.000000e+00 0.000000e+00
vn 0.000000e+00 -1.000000e+00 0.000000e+00
vn 0.000000e+00 -1.000000e+00 0.000000e+00
vn 0.000000e+00 -1.000000e+00 0.000000e+00
vn 0.000000e+00 -1.000000e+00 0.000000e+00
vn 4.420330e-08 -1.000000e+00 1.117975e-07
vn 0.000000e+00 -1.000000e+00 1.057515e-06
vn 0.000000e+00 -1.000000e+00 0.000000e+00
vn 1.201161e-07 -1.000000e+00 0.000000e+00
vn 1.683655e-07 -1.000000e+00 -4.261972e-07
vn 0.000000e+00 -1.000000e+00 1.057515e-06
vn 9.329239e-08 -1.000000e+00 9.898441e-14
vn -9.334071e-02 5.242975e-08 -9.956342e-01
vn 0.000000e+00 -1.053193e-07 -1.000000e+00
vn 0.000000e+00 -1.053193e-07 -1.000000e+00
vn 0.000000e+00 -1.053193e-07 -1.000000e+00
vn 1.000000e+00 0.000000e+00 0.000000e+00
vn 1.000000e+00 0.000000e+00 0.000000e+00
vn -1.000000e+00 0.000000e+00 0.000000e+00
vn -1.000000e+00 0.000000e+00 0.000000e+00
vn 0.000000e+00 -1.053193e-07 -1.000000e+00
vn 0.000000e+00 -1.053193e-07 -1.000000e+00
vn 1.000000e+00 0.000000e+00 0.000000e+00
vn 1.000000e+00 0.000000e+00 0.000000e+00
vn 0.000000e+00 -1.053192e-07 -1.000000e+00
vn -1.053194e-07 -2.106383e-07 -1.000000e+00
vn -4.655461e-15 1.053193e-07 1.000000e+00
vn -4.655461e-15 1.053193e-07 1.000000e+00
vn 0.000000e+00 -1.053193e-07 -1.000000e+00
vn 8.726822e-14 -1.053188e-07 -1.000000e+00
vn 1.265055e-14 -1.053193e-07 -1.000000e+00
vn 1.000000e+00 0.000000e+00 0.000000e+00
vn 1.000000e+00 0.000000e+00 0.000000e+00
vn 0.000000e+00 -1.053193e-07 -1.000000e+00
vn 0.000000e+00 -1.053193e-07 -1.000000e+00
vn -1.000000e+00 0.000000e+00 0.000000e+00
vn -1.000000e+00 8.425534e-07 -1.061013e-06
vn 1.000000e+00 0.000000e+00 0.000000e+00
vn 1.000000e+00 0.000000e+00 0.000000e+00
vn -1.000000e+00 0.000000e+00 0.000000e+00
vn -1.000000e+00 0.000000e+00 0.000000e+00
vn 0.000000e+00 -1.053193e-07 -1.000000e+00
vn 0.000000e+00 -1.053193e-07 -1.000000e+00
f 11//1 13//1 12//1
f 12//2 14//2 11//2
f 37//3 33//3 29//3
f 37//4 29//4 30//4
f 3//5 1//5 35//5
f 4//6 3//6 35//6
f 35//7 37//7 30//7
f 25//8 26//8 24//8
f 35//9 30//9 25//9
f 7//10 4//10 35//10
f 11//11 8//11 7//11
f 11//12 7//12 35//12
f 25//13 24//13 19//13
f 25//14 19//14 20//14
f 21//15 20//15 12//15
f 21//16 12//16 13//16
f 25//17 20//17 21//17
f 35//18 25//18 21//18
f 35//19 21//19 13//19
f 35//20 13//20 11//20
f 35//21 1//21 2//21
f 35//22 2//22 36//22
f 15//23 17//23 16//23
f 16//24 18//24 15//24
f 9//25 8//25 11//25
f 9//26 11//26 17//26
f 10//27 9//27 17//27
f 10//28 17//28 15//28
f 2//29 6//29 5//29
f 36//30 2//30 5//30
f 10//31 15//31 18//31
f 36//32 5//32 10//32
f 31//33 34//33 38//33
f 32//34 31//34 38//34
f 38//35 36//35 10//35
f 38//36 10//36 18//36
f 27//37 32//37 38//37
f 22//38 28//38 27//38
f 22//39 27//39 38//39
f 38//40 18//40 23//40
f 38//41 23//41 22//41
f 17//42 11//42 14//42
f 14//43 16//43 17//43
f 6//44 2//44 1//44
f 6//45 1//45 3//45
f 3//46 4//46 5//46
f 3//47 5//47 6//47
f 9//48 10//48 7//48
f 9//49 7//49 8//49
f 4//50 7//50 10//50
f 4//51 10//51 5//51
f 14//52 12//52 18//52
f 14//53 18//53 16//53
f 23//54 18//54 12//54
f 23//55 12//55 20//55
f 35//56 36//56 38//56
f 35//57 38//57 37//57
f 24//58 26//58 28//58
f 19//59 24//59 28//59
f 28//60 22//60 19//60
f 38//61 34//61 33//61
f 38//62 33//62 37//62
f 29//63 33//63 34//63
f 29//64 34//64 31//64
f 20//65 19//65 22//65
f 20//66 22//66 23//66
f 26//67 25//67 27//67
f 26//68 27//68 28//68
f 31//69 32//69 30//69
f 31//70 30//70 29//70
f 25//71 30//71 32//71
f 25//72 32//72 27//72
