# Exported by Simplify3D(R) Version 5.1.2
o 4_slot_block.obj
v -1.343057e+01 8.840341e+01 9.536743e-07
v -1.343057e+01 9.745849e+01 0.000000e+00
v -4.239090e+00 8.840341e+01 9.536743e-07
v -4.239090e+00 8.840341e+01 7.190673e+00
v -4.239090e+00 9.745849e+01 0.000000e+00
v -4.239090e+00 9.745849e+01 7.190672e+00
v 4.815987e+00 8.840341e+01 7.190673e+00
v 4.815987e+00 8.840341e+01 9.536743e-07
v 4.815987e+00 9.745849e+01 7.190672e+00
v 4.815987e+00 9.745849e+01 0.000000e+00
v 6.833282e+01 9.745850e+01 0.000000e+00
v 6.833282e+01 8.840341e+01 9.536743e-07
v 6.833282e+01 8.840341e+01 7.190672e+00
v 6.833283e+01 8.840341e+01 7.190674e+00
v 6.833282e+01 9.745850e+01 7.190672e+00
v 7.738790e+01 9.745849e+01 0.000000e+00
v 7.738789e+01 9.745850e+01 7.190672e+00
v 7.738790e+01 8.840341e+01 9.536743e-07
v 7.738789e+01 8.840342e+01 7.190673e+00
v 7.738791e+01 9.745849e+01 0.000000e+00
v 1.409047e+02 9.745850e+01 7.190672e+00
v 1.409047e+02 9.745850e+01 0.000000e+00
v 1.409047e+02 8.840342e+01 9.536743e-07
v 1.409047e+02 8.840342e+01 7.190673e+00
v 1.409047e+02 8.840342e+01 7.190674e+00
v 1.499598e+02 9.745850e+01 7.190672e+00
v 1.499598e+02 9.745850e+01 7.190672e+00
v 1.499598e+02 8.840342e+01 9.536743e-07
v 1.499598e+02 8.840342e+01 7.190673e+00
v 1.499598e+02 8.840342e+01 7.190673e+00
v 1.499598e+02 9.745850e+01 0.000000e+00
v 1.499598e+02 9.745850e+01 0.000000e+00
v 1.499598e+02 8.840342e+01 9.536743e-07
v 2.134766e+02 8.840342e+01 7.190673e+00
v 2.134766e+02 8.840342e+01 9.536743e-07
v 2.134766e+02 9.745850e+01 0.000000e+00
v 2.134766e+02 9.745850e+01 7.190672e+00
v 2.225317e+02 8.840342e+01 7.190673e+00
v 2.225317e+02 8.840342e+01 9.536743e-07
v 2.225317e+02 9.745850e+01 0.000000e+00
v 2.225317e+02 9.745850e+01 7.190672e+00
v 2.317392e+02 8.840342e+01 9.536743e-07
v 2.317392e+02 9.745850e+01 0.000000e+00
v -1.343057e+01 8.840341e+01 1.440513e+01
v -1.343057e+01 9.745849e+01 1.440513e+01
v 8.659535e+01 9.745850e+01 1.440513e+01
v 2.317392e+02 8.840343e+01 1.440513e+01
v 2.317392e+02 9.745850e+01 1.440513e+01
vn 4.504355e-08 -1.000000e+00 6.631329e-08
vn 5.178814e-08 -1.000000e+00 6.631329e-08
vn 5.170264e-08 -1.000000e+00 6.620380e-08
vn 5.187816e-08 -1.000000e+00 6.620380e-08
vn 5.204975e-08 -1.000000e+00 6.631329e-08
vn 4.278839e-08 -1.000000e+00 7.758062e-08
vn 0.000000e+00 -1.000000e+00 -1.321893e-06
vn 0.000000e+00 -1.000000e+00 0.000000e+00
vn 4.504354e-08 -1.000000e+00 6.631329e-08
vn 4.504354e-08 -1.000000e+00 6.631328e-08
vn 5.265969e-08 -1.000000e+00 -8.425551e-07
vn 0.000000e+00 -8.944272e-01 -4.472136e-01
vn 4.504355e-08 -1.000000e+00 6.631328e-08
vn 5.265969e-08 -1.000000e+00 -4.212775e-07
vn 4.504354e-08 -1.000000e+00 -3.603483e-07
vn 4.504352e-08 -1.000000e+00 1.139225e-07
vn 5.265981e-08 -1.000000e+00 2.002396e-07
vn 4.504355e-08 -1.000000e+00 6.631329e-08
vn 4.492624e-08 -9.973955e-01 -7.212637e-02
vn 4.599385e-08 -1.000000e+00 1.246929e-07
vn 4.504352e-08 -1.000000e+00 1.043632e-07
vn 4.504354e-08 -1.000000e+00 -7.206967e-07
vn 4.504354e-08 -1.000000e+00 6.631331e-08
vn 0.000000e+00 -1.053193e-07 -1.000000e+00
vn 0.000000e+00 0.000000e+00 -1.000000e+00
vn 4.743955e-15 -1.053193e-07 -1.000000e+00
vn 6.325273e-15 -1.053193e-07 -1.000000e+00
vn -1.000000e+00 -1.117451e-13 -1.061013e-06
vn -1.000000e+00 -1.117451e-13 -1.061013e-06
vn 0.000000e+00 -1.053193e-07 -1.000000e+00
vn 1.053193e-07 -8.873723e-14 -1.000000e+00
vn 1.000000e+00 0.000000e+00 0.000000e+00
vn 1.000000e+00 0.000000e+00 0.000000e+00
vn 5.546081e-15 -1.053193e-07 -1.000000e+00
vn 0.000000e+00 -1.053193e-07 -1.000000e+00
vn 0.000000e+00 1.000000e+00 0.000000e+00
vn 0.000000e+00 1.000000e+00 0.000000e+00
vn 3.162637e-15 -1.053193e-07 -1.000000e+00
vn 4.743955e-15 -1.053193e-07 -1.000000e+00
vn 0.000000e+00 -1.000000e+00 6.631329e-08
vn 0.000000e+00 -1.000000e+00 6.631329e-08
vn 1.000000e+00 0.000000e+00 0.000000e+00
vn 1.000000e+00 0.000000e+00 0.000000e+00
vn 1.090858e-14 -1.053193e-07 -1.000000e+00
vn 1.090858e-14 -1.053193e-07 -1.000000e+00
vn 0.000000e+00 -1.053193e-07 -1.000000e+00
vn 0.000000e+00 -1.053193e-07 -1.000000e+00
vn -1.000000e+00 0.000000e+00 0.000000e+00
vn -1.000000e+00 0.000000e+00 0.000000e+00
vn 1.000000e+00 0.000000e+00 0.000000e+00
vn 1.000000e+00 0.000000e+00 0.000000e+00
vn -1.000000e+00 0.000000e+00 0.000000e+00
vn -1.000000e+00 0.000000e+00 0.000000e+00
vn 0.000000e+00 -1.053193e-07 -1.000000e+00
vn 0.000000e+00 -1.053193e-07 -1.000000e+00
vn -6.005806e-08 1.000000e+00 -1.326266e-07
vn -3.002904e-08 1.000000e+00 0.000000e+00
vn -4.504355e-08 1.000000e+00 -1.326266e-07
vn 0.000000e+00 0.000000e+00 -1.000000e+00
vn -1.035763e-07 1.000000e+00 -1.326266e-07
vn 0.000000e+00 0.000000e+00 1.000000e+00
vn -5.170264e-08 1.000000e+00 -6.620380e-08
vn -3.942329e-08 1.000000e+00 -8.187538e-08
vn -3.942329e-08 1.000000e+00 -8.187526e-08
vn 0.000000e+00 1.000000e+00 -6.620380e-08
vn -1.040995e-07 1.000000e+00 -1.326266e-07
vn -4.767136e-08 1.000000e+00 -1.543180e-07
vn 0.000000e+00 1.000000e+00 9.253241e-07
vn 0.000000e+00 1.000000e+00 0.000000e+00
vn -6.005806e-08 1.000000e+00 -1.326266e-07
vn -6.311486e-08 1.000000e+00 -1.596279e-07
vn -6.005806e-08 1.000000e+00 -1.326266e-07
vn -6.005806e-08 1.000000e+00 -3.594668e-07
vn 0.000000e+00 1.000000e+00 3.965679e-07
vn -3.499148e-08 1.000000e+00 4.950188e-14
vn -1.000000e+00 0.000000e+00 0.000000e+00
vn -1.000000e+00 0.000000e+00 0.000000e+00
vn -4.506443e-15 1.053193e-07 1.000000e+00
vn -5.020714e-15 1.053193e-07 1.000000e+00
vn -4.152032e-15 1.053193e-07 1.000000e+00
vn 4.743955e-15 -1.053193e-07 -1.000000e+00
vn 6.325272e-15 -1.053193e-07 -1.000000e+00
vn 5.463771e-15 -1.053193e-07 -1.000000e+00
vn 0.000000e+00 -1.053193e-07 -1.000000e+00
vn 1.000000e+00 0.000000e+00 0.000000e+00
vn 1.000000e+00 0.000000e+00 0.000000e+00
vn -1.000000e+00 0.000000e+00 0.000000e+00
vn -1.000000e+00 0.000000e+00 0.000000e+00
vn 0.000000e+00 -1.053193e-07 -1.000000e+00
vn 0.000000e+00 -1.053193e-07 -1.000000e+00
vn 1.000000e+00 -8.425544e-07 -1.061013e-06
vn 1.000000e+00 0.000000e+00 0.000000e+00
f 28//1 35//1 34//1
f 38//2 39//2 42//2
f 38//3 42//3 47//3
f 44//4 1//4 3//4
f 44//5 3//5 4//5
f 38//6 47//6 44//6
f 34//7 38//7 44//7
f 44//8 4//8 7//8
f 7//9 8//9 12//9
f 7//10 12//10 13//10
f 25//11 24//11 29//11
f 25//12 29//12 30//12
f 18//13 23//13 24//13
f 14//14 13//14 19//14
f 7//15 13//15 14//15
f 44//16 7//16 14//16
f 44//17 14//17 19//17
f 30//18 28//18 34//18
f 25//19 30//19 34//19
f 25//20 34//20 44//20
f 25//21 44//21 19//21
f 24//22 25//22 19//22
f 24//23 19//23 18//23
f 18//24 16//24 20//24
f 20//25 16//25 22//25
f 23//26 18//26 20//26
f 20//27 22//27 23//27
f 17//28 16//28 18//28
f 17//29 18//29 19//29
f 15//30 17//30 19//30
f 15//31 19//31 13//31
f 22//32 21//32 24//32
f 22//33 24//33 23//33
f 29//34 24//34 21//34
f 29//35 21//35 26//35
f 32//36 26//36 27//36
f 32//37 27//37 31//37
f 31//38 36//38 35//38
f 35//39 28//39 31//39
f 28//40 30//40 29//40
f 29//41 33//41 28//41
f 47//42 42//42 43//42
f 47//43 43//43 48//43
f 40//44 43//44 42//44
f 40//45 42//45 39//45
f 31//46 28//46 33//46
f 33//47 32//47 31//47
f 26//48 32//48 33//48
f 26//49 33//49 29//49
f 36//50 37//50 34//50
f 36//51 34//51 35//51
f 39//52 38//52 41//52
f 39//53 41//53 40//53
f 37//54 41//54 38//54
f 37//55 38//55 34//55
f 22//56 16//56 17//56
f 36//57 31//57 27//57
f 37//58 36//58 27//58
f 37//59 27//59 26//59
f 43//60 40//60 41//60
f 41//61 37//61 26//61
f 48//62 43//62 41//62
f 46//63 48//63 41//63
f 46//64 41//64 26//64
f 5//65 2//65 45//65
f 6//66 5//66 45//66
f 45//67 46//67 26//67
f 45//68 26//68 21//68
f 9//69 6//69 45//69
f 11//70 10//70 9//70
f 11//71 9//71 45//71
f 21//72 22//72 17//72
f 45//73 21//73 17//73
f 45//74 17//74 15//74
f 45//75 15//75 11//75
f 45//76 2//76 1//76
f 45//77 1//77 44//77
f 44//78 47//78 48//78
f 46//79 45//79 44//79
f 48//80 46//80 44//80
f 12//81 8//81 10//81
f 10//82 11//82 12//82
f 3//83 1//83 2//83
f 3//84 2//84 5//84
f 5//85 6//85 4//85
f 5//86 4//86 3//86
f 8//87 7//87 9//87
f 8//88 9//88 10//88
f 6//89 9//89 7//89
f 6//90 7//90 4//90
f 11//91 15//91 13//91
f 11//92 13//92 12//92
