# Exported by Simplify3D(R) Version 5.1.2
o right_support_01.obj
v 1.145275e+02 6.018953e+01 3.814697e-06
v 1.054725e+02 6.018953e+01 3.814697e-06
v 1.145275e+02 6.727893e+01 7.206638e+00
v 1.054725e+02 6.727893e+01 7.206638e+00
v 1.145275e+02 6.018953e+01 1.440513e+01
v 1.054725e+02 6.018953e+01 1.440513e+01
v 1.145275e+02 6.727893e+01 1.440513e+01
v 1.054725e+02 6.727893e+01 1.440513e+01
v 1.145275e+02 7.633401e+01 7.206638e+00
v 1.054725e+02 7.633401e+01 7.206638e+00
v 1.145275e+02 7.633401e+01 1.440513e+01
v 1.054725e+02 7.633401e+01 1.440513e+01
v 1.145275e+02 8.748808e+01 1.440513e+01
v 1.054725e+02 8.748808e+01 1.440513e+01
v 1.145275e+02 1.026345e+02 1.440513e+01
v 1.054725e+02 1.026345e+02 1.440513e+01
v 1.054725e+02 9.785139e+01 1.805708e+01
v 1.084556e+02 9.785139e+01 1.805708e+01
v 1.054725e+02 9.339911e+01 1.950802e+01
v 1.084556e+02 9.339911e+01 1.950802e+01
v 1.145275e+02 1.053102e+02 7.206635e+00
v 1.145275e+02 1.054511e+02 7.206635e+00
v 1.145275e+02 1.145062e+02 7.206635e+00
v 1.145275e+02 1.136727e+02 7.206635e+00
v 1.145275e+02 1.143653e+02 7.206635e+00
v 1.054725e+02 1.145062e+02 7.206635e+00
v 1.054725e+02 1.053102e+02 7.206635e+00
v 1.054725e+02 1.143653e+02 7.206635e+00
v 1.054725e+02 1.054511e+02 7.206635e+00
v 1.137660e+02 1.136038e+02 7.206635e+00
v 1.054725e+02 1.053102e+02 1.440513e+01
v 1.145275e+02 1.053102e+02 1.440513e+01
v 1.145275e+02 1.145062e+02 1.440513e+01
v 1.054725e+02 1.145062e+02 1.440513e+01
v 1.145275e+02 1.065399e+02 7.304050e+01
v 1.054725e+02 1.065399e+02 7.304050e+01
v 1.145275e+02 1.104424e+02 7.176874e+01
v 1.054725e+02 1.104313e+02 7.177236e+01
v 1.084556e+02 1.104424e+02 7.176874e+01
v 1.084556e+02 1.104313e+02 7.177236e+01
v 1.145275e+02 1.250565e+02 1.440513e+01
v 1.054725e+02 1.250565e+02 1.440513e+01
v 1.145275e+02 1.250565e+02 8.341286e+01
v 1.054725e+02 1.250565e+02 8.341286e+01
v 1.054725e+02 1.169750e+02 1.051566e+02
v 1.145275e+02 1.169750e+02 1.051566e+02
v 1.145275e+02 1.209055e+02 1.038757e+02
v 1.054725e+02 1.250997e+02 1.016704e+02
v 1.054725e+02 1.208944e+02 1.038793e+02
v 1.084556e+02 1.208944e+02 1.038793e+02
v 1.084556e+02 1.209055e+02 1.038757e+02
v 1.054725e+02 1.251357e+02 1.168941e+02
v 1.145275e+02 1.251676e+02 1.304301e+02
v 1.145275e+02 1.251676e+02 1.303708e+02
v 1.054725e+02 1.251676e+02 1.303708e+02
v 1.054725e+02 1.251676e+02 1.304301e+02
v 1.084556e+02 1.295469e+02 1.304301e+02
v 1.054725e+02 1.295469e+02 1.304301e+02
v 1.084556e+02 1.344720e+02 1.304301e+02
v 1.054725e+02 1.344720e+02 1.304301e+02
v 1.145275e+02 1.433416e+02 7.206635e+00
v 1.054725e+02 1.433416e+02 7.206635e+00
v 1.054725e+02 1.433416e+02 1.440513e+01
v 1.145275e+02 1.394616e+02 1.440513e+01
v 1.054725e+02 1.394616e+02 1.440513e+01
v 1.145275e+02 1.433416e+02 1.440513e+01
v 1.145275e+02 1.492956e+02 1.061349e+02
v 1.054725e+02 1.492956e+02 1.061349e+02
v 1.054725e+02 1.492956e+02 1.061349e+02
v 1.054725e+02 1.394616e+02 1.199916e+02
v 1.145275e+02 1.394616e+02 1.199916e+02
v 1.145275e+02 1.492956e+02 1.199916e+02
v 1.054725e+02 1.492956e+02 1.199916e+02
v 1.145275e+02 1.492956e+02 1.304301e+02
v 1.054725e+02 1.492956e+02 1.304301e+02
v 1.145275e+02 1.598105e+02 0.000000e+00
v 1.054725e+02 1.598105e+02 0.000000e+00
v 1.145275e+02 1.523967e+02 7.206635e+00
v 1.054725e+02 1.523967e+02 7.206635e+00
v 1.145275e+02 1.523967e+02 1.440513e+01
v 1.054725e+02 1.598105e+02 1.440513e+01
v 1.145275e+02 1.598105e+02 1.440513e+01
v 1.054725e+02 1.523967e+02 1.440513e+01
v 1.145275e+02 1.597341e+02 1.061349e+02
v 1.054725e+02 1.597341e+02 1.061349e+02
v 1.145275e+02 1.597341e+02 1.304327e+02
v 1.054725e+02 1.597341e+02 1.304327e+02
vn 0.000000e+00 0.000000e+00 1.000000e+00
vn 0.000000e+00 0.000000e+00 1.000000e+00
vn 0.000000e+00 0.000000e+00 1.000000e+00
vn 0.000000e+00 0.000000e+00 1.000000e+00
vn 0.000000e+00 1.000000e+00 0.000000e+00
vn 0.000000e+00 1.000000e+00 0.000000e+00
vn 0.000000e+00 0.000000e+00 1.000000e+00
vn 0.000000e+00 0.000000e+00 1.000000e+00
vn 0.000000e+00 0.000000e+00 1.000000e+00
vn 0.000000e+00 0.000000e+00 1.000000e+00
vn 0.000000e+00 -1.000000e+00 0.000000e+00
vn 0.000000e+00 -1.000000e+00 0.000000e+00
vn 0.000000e+00 -9.510565e-01 3.090171e-01
vn 0.000000e+00 -9.510565e-01 3.090171e-01
vn 0.000000e+00 -9.510565e-01 3.090169e-01
vn 0.000000e+00 -9.510565e-01 3.090169e-01
vn 0.000000e+00 0.000000e+00 -1.000000e+00
vn 0.000000e+00 0.000000e+00 -1.000000e+00
vn 0.000000e+00 0.000000e+00 -1.000000e+00
vn 0.000000e+00 0.000000e+00 -1.000000e+00
vn 1.000000e+00 -3.162055e-07 0.000000e+00
vn 1.000000e+00 1.153775e-04 -1.105586e-07
vn 1.000000e+00 0.000000e+00 0.000000e+00
vn 1.000000e+00 0.000000e+00 0.000000e+00
vn 1.000000e+00 0.000000e+00 0.000000e+00
vn 1.000000e+00 -4.168146e-07 -3.139952e-07
vn 1.000000e+00 0.000000e+00 0.000000e+00
vn 1.000000e+00 -3.144112e-07 -7.308900e-07
vn 1.000000e+00 1.859015e-10 -7.308900e-07
vn 0.000000e+00 0.000000e+00 1.000000e+00
vn 0.000000e+00 -2.543495e-04 9.999999e-01
vn 0.000000e+00 0.000000e+00 1.000000e+00
vn 0.000000e+00 -2.543495e-04 9.999999e-01
vn 0.000000e+00 0.000000e+00 1.000000e+00
vn 0.000000e+00 0.000000e+00 1.000000e+00
vn 0.000000e+00 0.000000e+00 1.000000e+00
vn 0.000000e+00 0.000000e+00 1.000000e+00
vn 0.000000e+00 -1.000000e+00 0.000000e+00
vn 0.000000e+00 -1.000000e+00 0.000000e+00
vn 0.000000e+00 -1.000000e+00 0.000000e+00
vn 0.000000e+00 -1.000000e+00 0.000000e+00
vn 0.000000e+00 1.000000e+00 0.000000e+00
vn 0.000000e+00 1.000000e+00 0.000000e+00
vn 0.000000e+00 -1.000000e+00 2.648152e-07
vn 0.000000e+00 -1.000000e+00 2.648152e-07
vn 0.000000e+00 1.000000e+00 0.000000e+00
vn 0.000000e+00 1.000000e+00 0.000000e+00
vn 0.000000e+00 -3.829212e-08 -1.000000e+00
vn 0.000000e+00 -3.829212e-08 -1.000000e+00
vn 0.000000e+00 9.510565e-01 -3.090172e-01
vn 0.000000e+00 9.510565e-01 -3.090171e-01
vn 1.000000e+00 0.000000e+00 1.059860e-06
vn 1.000000e+00 8.916550e-08 2.736111e-07
vn 1.000000e+00 -3.834288e-08 -1.176575e-07
vn 1.000000e+00 7.916984e-07 1.605994e-07
vn 1.000000e+00 0.000000e+00 0.000000e+00
vn 1.000000e+00 1.188615e-07 -1.491790e-07
vn 1.000000e+00 6.840006e-07 0.000000e+00
vn 1.000000e+00 0.000000e+00 -1.330006e-07
vn 1.000000e+00 0.000000e+00 1.059860e-06
vn 1.000000e+00 1.395297e-13 1.059860e-06
vn 1.000000e+00 -1.076169e-06 0.000000e+00
vn 1.000000e+00 0.000000e+00 0.000000e+00
vn 1.000000e+00 2.059319e-06 1.059860e-06
vn 1.000000e+00 -1.076169e-06 2.849859e-13
vn 1.000000e+00 0.000000e+00 -1.058663e-06
vn 1.000000e+00 -4.053844e-14 -1.058663e-06
vn 1.000000e+00 0.000000e+00 1.059860e-06
vn 1.000000e+00 0.000000e+00 -1.058663e-06
vn 1.000000e+00 -1.393720e-13 -1.058662e-06
vn 1.000000e+00 0.000000e+00 -1.058663e-06
vn 1.000000e+00 0.000000e+00 1.059860e-06
vn 1.000000e+00 0.000000e+00 1.059860e-06
vn 1.000000e+00 0.000000e+00 1.059860e-06
vn 1.000000e+00 0.000000e+00 -1.058663e-06
vn 1.000000e+00 0.000000e+00 -1.058663e-06
vn 1.000000e+00 0.000000e+00 -1.058663e-06
vn 1.000000e+00 0.000000e+00 -1.058651e-06
vn -1.000000e+00 0.000000e+00 0.000000e+00
vn -1.000000e+00 0.000000e+00 0.000000e+00
vn -1.000000e+00 0.000000e+00 0.000000e+00
vn -1.000000e+00 0.000000e+00 0.000000e+00
vn -1.000000e+00 0.000000e+00 0.000000e+00
vn -1.000000e+00 0.000000e+00 0.000000e+00
vn -1.000000e+00 0.000000e+00 0.000000e+00
vn -1.000000e+00 0.000000e+00 0.000000e+00
vn -1.000000e+00 0.000000e+00 0.000000e+00
vn -1.000000e+00 0.000000e+00 0.000000e+00
vn -1.000000e+00 0.000000e+00 0.000000e+00
vn -1.000000e+00 0.000000e+00 0.000000e+00
vn -1.000000e+00 0.000000e+00 0.000000e+00
vn -1.000000e+00 0.000000e+00 0.000000e+00
vn -1.000000e+00 0.000000e+00 0.000000e+00
vn -1.000000e+00 0.000000e+00 0.000000e+00
vn -1.000000e+00 0.000000e+00 0.000000e+00
vn -1.000000e+00 0.000000e+00 0.000000e+00
vn -1.000000e+00 0.000000e+00 0.000000e+00
vn -1.000000e+00 0.000000e+00 0.000000e+00
vn -1.000000e+00 0.000000e+00 0.000000e+00
vn -1.000000e+00 0.000000e+00 0.000000e+00
vn -1.000000e+00 0.000000e+00 0.000000e+00
vn -1.000000e+00 0.000000e+00 0.000000e+00
vn -1.000000e+00 0.000000e+00 0.000000e+00
vn -1.000000e+00 0.000000e+00 0.000000e+00
vn -1.000000e+00 0.000000e+00 0.000000e+00
vn -1.000000e+00 0.000000e+00 0.000000e+00
vn -1.000000e+00 0.000000e+00 0.000000e+00
vn -1.000000e+00 0.000000e+00 0.000000e+00
vn -1.000000e+00 0.000000e+00 0.000000e+00
vn -1.000000e+00 0.000000e+00 0.000000e+00
vn -1.000000e+00 0.000000e+00 0.000000e+00
vn -1.000000e+00 0.000000e+00 0.000000e+00
vn -1.000000e+00 0.000000e+00 0.000000e+00
vn -1.000000e+00 0.000000e+00 0.000000e+00
vn -1.000000e+00 0.000000e+00 0.000000e+00
vn -1.000000e+00 0.000000e+00 0.000000e+00
vn -1.000000e+00 0.000000e+00 0.000000e+00
vn 0.000000e+00 3.420003e-07 1.000000e+00
vn 0.000000e+00 3.420003e-07 1.000000e+00
vn 0.000000e+00 0.000000e+00 1.000000e+00
vn 0.000000e+00 0.000000e+00 1.000000e+00
vn 0.000000e+00 -1.000000e+00 0.000000e+00
vn 0.000000e+00 -1.000000e+00 0.000000e+00
vn 0.000000e+00 -9.507865e-01 3.098468e-01
vn 0.000000e+00 -9.507865e-01 3.098468e-01
vn -2.705591e-06 -9.507865e-01 3.098468e-01
vn -1.000000e+00 0.000000e+00 0.000000e+00
vn -1.000000e+00 0.000000e+00 0.000000e+00
vn -1.000000e+00 0.000000e+00 0.000000e+00
vn -1.000000e+00 0.000000e+00 0.000000e+00
vn -1.000000e+00 0.000000e+00 0.000000e+00
vn -1.000000e+00 0.000000e+00 0.000000e+00
vn 0.000000e+00 9.507865e-01 -3.098469e-01
vn 0.000000e+00 9.507865e-01 -3.098469e-01
vn 0.000000e+00 9.507865e-01 -3.098468e-01
vn 0.000000e+00 9.507865e-01 -3.098468e-01
vn -5.389221e-07 9.507865e-01 -3.098469e-01
vn 0.000000e+00 3.098471e-01 9.507864e-01
vn 0.000000e+00 3.098471e-01 9.507864e-01
vn 0.000000e+00 1.000000e+00 0.000000e+00
vn 0.000000e+00 1.000000e+00 0.000000e+00
vn 0.000000e+00 -1.000000e+00 0.000000e+00
vn 0.000000e+00 -1.000000e+00 0.000000e+00
vn 0.000000e+00 0.000000e+00 1.000000e+00
vn 0.000000e+00 0.000000e+00 1.000000e+00
vn 0.000000e+00 1.000000e+00 0.000000e+00
vn 0.000000e+00 1.000000e+00 0.000000e+00
vn 0.000000e+00 0.000000e+00 1.000000e+00
vn 0.000000e+00 0.000000e+00 1.000000e+00
vn 0.000000e+00 1.000000e+00 0.000000e+00
vn 0.000000e+00 1.000000e+00 0.000000e+00
vn 0.000000e+00 -1.000000e+00 0.000000e+00
vn 0.000000e+00 -1.000000e+00 0.000000e+00
vn 0.000000e+00 0.000000e+00 1.000000e+00
vn 0.000000e+00 0.000000e+00 1.000000e+00
vn 0.000000e+00 -9.507865e-01 3.098469e-01
vn 0.000000e+00 -9.507865e-01 3.098469e-01
vn 0.000000e+00 3.101489e-01 9.506880e-01
vn 0.000000e+00 3.098465e-01 9.507866e-01
vn 0.000000e+00 3.098474e-01 9.507863e-01
vn 6.128798e-07 3.098461e-01 9.507867e-01
vn 0.000000e+00 -3.098471e-01 -9.507864e-01
vn 0.000000e+00 -3.095586e-01 -9.508803e-01
vn 0.000000e+00 -3.098463e-01 -9.507867e-01
vn 5.846463e-07 -3.098475e-01 -9.507862e-01
vn 0.000000e+00 -1.000000e+00 0.000000e+00
vn 0.000000e+00 -1.000000e+00 0.000000e+00
vn 0.000000e+00 0.000000e+00 1.000000e+00
vn 0.000000e+00 0.000000e+00 1.000000e+00
vn 0.000000e+00 0.000000e+00 1.000000e+00
vn 0.000000e+00 0.000000e+00 1.000000e+00
vn 0.000000e+00 0.000000e+00 1.000000e+00
vn 0.000000e+00 0.000000e+00 1.000000e+00
vn 0.000000e+00 0.000000e+00 1.000000e+00
f 80//1 82//1 81//1
f 80//2 81//2 83//2
f 63//3 65//3 64//3
f 63//4 64//4 66//4
f 64//5 65//5 70//5
f 64//6 70//6 71//6
f 31//7 16//7 15//7
f 31//8 15//8 32//8
f 33//9 41//9 42//9
f 33//10 42//10 34//10
f 53//11 56//11 55//11
f 53//12 55//12 54//12
f 35//13 36//13 14//13
f 13//14 35//14 14//14
f 54//15 55//15 45//15
f 45//16 46//16 54//16
f 85//17 84//17 67//17
f 85//18 67//18 68//18
f 73//19 72//19 71//19
f 73//20 71//20 70//20
f 74//21 53//21 54//21
f 54//22 43//22 41//22
f 41//23 64//23 71//23
f 72//24 67//24 84//24
f 54//25 41//25 71//25
f 72//26 84//26 86//26
f 54//27 71//27 72//27
f 74//28 54//28 72//28
f 74//29 72//29 86//29
f 57//30 58//30 56//30
f 74//31 86//31 87//31
f 75//32 60//32 59//32
f 74//33 87//33 75//33
f 57//34 56//34 53//34
f 74//35 75//35 59//35
f 59//36 57//36 53//36
f 53//37 74//37 59//37
f 69//38 68//38 67//38
f 67//39 72//39 73//39
f 73//40 68//40 69//40
f 69//41 67//41 73//41
f 87//42 86//42 84//42
f 87//43 84//43 85//43
f 2//44 1//44 5//44
f 2//45 5//45 6//45
f 81//46 82//46 76//46
f 81//47 76//47 77//47
f 77//48 76//48 1//48
f 77//49 1//49 2//49
f 15//50 16//50 44//50
f 15//51 44//51 43//51
f 21//52 32//52 15//52
f 54//53 46//53 47//53
f 37//54 35//54 13//54
f 43//55 54//55 47//55
f 43//56 47//56 37//56
f 15//57 43//57 37//57
f 13//58 11//58 9//58
f 15//59 37//59 13//59
f 21//60 15//60 13//60
f 21//61 13//61 9//61
f 3//62 7//62 5//62
f 76//63 82//63 80//63
f 76//64 80//64 78//64
f 3//65 5//65 1//65
f 9//66 3//66 1//66
f 1//67 76//67 78//67
f 61//68 66//68 64//68
f 1//69 78//69 61//69
f 21//70 9//70 1//70
f 22//71 21//71 1//71
f 61//72 64//72 41//72
f 41//73 33//73 23//73
f 61//74 41//74 23//74
f 24//75 22//75 1//75
f 25//76 24//76 1//76
f 1//77 61//77 23//77
f 1//78 23//78 25//78
f 87//79 85//79 68//79
f 87//80 68//80 73//80
f 75//81 87//81 73//81
f 75//82 73//82 70//82
f 44//83 48//83 60//83
f 26//84 34//84 42//84
f 42//85 44//85 60//85
f 60//86 75//86 70//86
f 65//87 63//87 62//87
f 60//88 70//88 65//88
f 42//89 60//89 65//89
f 42//90 65//90 62//90
f 26//91 42//91 62//91
f 79//92 83//92 81//92
f 79//93 81//93 77//93
f 2//94 6//94 8//94
f 2//95 8//95 4//95
f 79//96 77//96 2//96
f 62//97 79//97 2//97
f 2//98 4//98 10//98
f 10//99 12//99 14//99
f 16//100 31//100 27//100
f 10//101 14//101 16//101
f 26//102 62//102 2//102
f 28//103 26//103 2//103
f 2//104 10//104 16//104
f 2//105 16//105 27//105
f 29//106 28//106 2//106
f 2//107 27//107 29//107
f 52//108 55//108 58//108
f 55//109 56//109 58//109
f 48//110 44//110 16//110
f 14//111 36//111 38//111
f 14//112 38//112 19//112
f 17//113 48//113 16//113
f 14//114 19//114 17//114
f 16//115 14//115 17//115
f 52//116 49//116 45//116
f 52//117 45//117 55//117
f 11//118 13//118 14//118
f 11//119 14//119 12//119
f 8//120 6//120 5//120
f 8//121 5//121 7//121
f 42//122 41//122 43//122
f 42//123 43//123 44//123
f 48//124 17//124 18//124
f 18//125 59//125 60//125
f 18//126 60//126 48//126
f 50//127 57//127 59//127
f 59//128 18//128 20//128
f 20//129 40//129 39//129
f 51//130 50//130 59//130
f 59//131 20//131 39//131
f 59//132 39//132 51//132
f 40//133 20//133 19//133
f 40//134 19//134 38//134
f 50//135 49//135 52//135
f 58//136 57//136 50//136
f 52//137 58//137 50//137
f 20//138 18//138 17//138
f 20//139 17//139 19//139
f 3//140 4//140 8//140
f 8//141 7//141 3//141
f 12//142 10//142 9//142
f 9//143 11//143 12//143
f 3//144 9//144 10//144
f 3//145 10//145 4//145
f 21//146 27//146 31//146
f 31//147 32//147 21//147
f 29//148 27//148 21//148
f 29//149 21//149 22//149
f 61//150 62//150 63//150
f 63//151 66//151 61//151
f 79//152 78//152 80//152
f 80//153 83//153 79//153
f 79//154 62//154 61//154
f 79//155 61//155 78//155
f 47//156 51//156 39//156
f 47//157 39//157 37//157
f 37//158 39//158 40//158
f 40//159 38//159 36//159
f 36//160 35//160 37//160
f 40//161 36//161 37//161
f 45//162 49//162 50//162
f 50//163 51//163 47//163
f 47//164 46//164 45//164
f 50//165 47//165 45//165
f 26//166 23//166 33//166
f 33//167 34//167 26//167
f 26//168 28//168 25//168
f 26//169 25//169 23//169
f 24//170 25//170 30//170
f 30//171 25//171 28//171
f 28//172 29//172 22//172
f 22//173 24//173 30//173
f 30//174 28//174 22//174
